<?xml version="1.0" encoding="UTF-8" standalone="no"?>
<!-- Created with Inkscape (http://www.inkscape.org/) -->

<svg
   width="150"
   height="150"
   viewBox="0 0 39.687499 39.687501"
   version="1.1"
   id="svg3673"
   inkscape:version="1.1.1 (3bf5ae0d25, 2021-09-20)"
   sodipodi:docname="colonel-light.svg"
   xmlns:inkscape="http://www.inkscape.org/namespaces/inkscape"
   xmlns:sodipodi="http://sodipodi.sourceforge.net/DTD/sodipodi-0.dtd"
   xmlns="http://www.w3.org/2000/svg"
   xmlns:svg="http://www.w3.org/2000/svg"
   xmlns:rdf="http://www.w3.org/1999/02/22-rdf-syntax-ns#"
   xmlns:cc="http://creativecommons.org/ns#"
   xmlns:dc="http://purl.org/dc/elements/1.1/">
  <title
     id="title6124">Colonel Light</title>
  <sodipodi:namedview
     id="namedview3675"
     pagecolor="#ffffff"
     bordercolor="#999999"
     borderopacity="1"
     inkscape:pageshadow="0"
     inkscape:pageopacity="0"
     inkscape:pagecheckerboard="true"
     inkscape:document-units="px"
     showgrid="false"
     units="px"
     inkscape:zoom="4.3994184"
     inkscape:cx="53.757106"
     inkscape:cy="82.510906"
     inkscape:window-width="1718"
     inkscape:window-height="1360"
     inkscape:window-x="1913"
     inkscape:window-y="0"
     inkscape:window-maximized="0"
     inkscape:current-layer="layer1" />
  <defs
     id="defs3670" />
  <g
     inkscape:label="Layer 1"
     inkscape:groupmode="layer"
     id="layer1">
    <g
       id="g5793"
       transform="matrix(1.1410854,0,0,1.4178666,-2.7996634,-8.2920404)"
       style="fill:#f8f8f8;fill-opacity:1;stroke:#f8f8f8;stroke-opacity:1">
      <path
         style="fill:#f8f8f8;fill-opacity:1;stroke:#f8f8f8;stroke-width:0.264583px;stroke-linecap:butt;stroke-linejoin:miter;stroke-opacity:1"
         d="m 6.9513366,15.496802 c 0,0 2.9417782,0.382732 5.3465724,0.127577 2.404794,-0.255155 2.723041,-0.170103 2.953453,0.255155 0.230412,0.425257 0.16036,1.190721 0.348242,1.615979 0.187885,0.425258 1.855283,0.637886 1.855283,0.637886 l 2.388863,6.889176 c 0,0 -1.689355,-0.127578 -1.9459,0.04253 -0.256547,0.170104 -0.689305,-0.212628 -1.284665,-0.212628 -0.595361,0 -1.865026,0.552835 -2.415077,0.212628 -0.550052,-0.340206 -1.293798,-1.071224 -0.984442,-1.198802 0.309355,-0.127577 2.60738,0.348287 2.876994,-0.119497 0.269613,-0.467783 0.458351,-1.445876 0.248505,-1.786082 C 16.129323,21.620513 13.021618,20.727472 12.74868,20.302214 12.475742,19.876956 10.688267,20.047059 8.5394793,18.898863 6.390691,17.750667 7.1061295,17.367935 6.0410526,16.304791 4.975976,15.241647 5.5931862,15.160777 6.0919295,15.284173 Z"
         id="path3907"
         sodipodi:nodetypes="csssccssssscssssc" />
      <path
         style="fill:#f8f8f8;fill-opacity:1;stroke:#f8f8f8;stroke-width:0.264583px;stroke-linecap:butt;stroke-linejoin:miter;stroke-opacity:1"
         d="m 32.736164,15.496802 c 0,0 -2.941779,0.382732 -5.346573,0.127577 -2.404794,-0.255154 -2.723041,-0.170103 -2.953453,0.255155 -0.230412,0.425258 -0.16036,1.190721 -0.348242,1.615979 -0.187885,0.425258 -1.855283,0.637886 -1.855283,0.637886 l -2.388863,6.889176 c 0,0 1.689355,-0.127578 1.9459,0.04253 0.256547,0.170104 0.689305,-0.212628 1.284665,-0.212628 0.595361,0 1.865026,0.552835 2.415077,0.212628 0.550052,-0.340206 1.590293,-1.071224 1.280937,-1.198802 -0.309355,-0.127577 -2.903875,0.348287 -3.173489,-0.119497 -0.269613,-0.467783 -0.458351,-1.445876 -0.248505,-1.786082 0.209842,-0.340211 3.317547,-1.233252 3.590485,-1.65851 0.272938,-0.425258 2.060413,-0.255155 4.209201,-1.403351 2.148788,-1.148196 1.43335,-1.530928 2.498427,-2.594071 1.065076,-1.063144 0.447866,-1.144014 -0.05088,-1.020619 z"
         id="path3907-6"
         sodipodi:nodetypes="csssccssssscssssc" />
      <path
         style="fill:#f8f8f8;fill-opacity:1;stroke:#f8f8f8;stroke-width:0.264583px;stroke-linecap:butt;stroke-linejoin:miter;stroke-opacity:1"
         d="m 17.148625,15.11407 c 0,0 -0.428614,-1.138762 1.233247,-0.552835 0.698833,0.246389 1.909285,-0.276076 2.551547,0.637886 0.558092,0.794186 -0.898541,1.347854 0.29768,2.21134 l 1.001514,0.722938 -2.388863,6.889176 -2.388863,-6.889176 c 0,0 1.437294,-1.530927 1.054562,-1.743556 -0.382732,-0.212629 -0.807989,-1.148196 -1.063144,-0.935567 -0.255155,0.212629 -0.29768,-0.340206 -0.29768,-0.340206 z"
         id="path5385"
         sodipodi:nodetypes="cssscccssc" />
    </g>
  </g>
  <metadata
     id="metadata6122">
    <rdf:RDF>
      <cc:Work
         rdf:about="">
        <dc:title>Colonel Light</dc:title>
      </cc:Work>
    </rdf:RDF>
  </metadata>
</svg>
