<?xml version="1.0" encoding="UTF-8" standalone="no"?>
<!-- Created with Inkscape (http://www.inkscape.org/) -->

<svg
   width="150"
   height="150"
   viewBox="0 0 39.6875 39.6875"
   version="1.1"
   id="svg116"
   inkscape:version="1.1.1 (3bf5ae0d25, 2021-09-20)"
   sodipodi:docname="five-star-dark.svg"
   xmlns:inkscape="http://www.inkscape.org/namespaces/inkscape"
   xmlns:sodipodi="http://sodipodi.sourceforge.net/DTD/sodipodi-0.dtd"
   xmlns="http://www.w3.org/2000/svg"
   xmlns:svg="http://www.w3.org/2000/svg"
   xmlns:rdf="http://www.w3.org/1999/02/22-rdf-syntax-ns#"
   xmlns:cc="http://creativecommons.org/ns#"
   xmlns:dc="http://purl.org/dc/elements/1.1/">
  <title
     id="title1467">Five Star Dark</title>
  <sodipodi:namedview
     id="namedview118"
     pagecolor="#ffffff"
     bordercolor="#999999"
     borderopacity="1"
     inkscape:pageshadow="0"
     inkscape:pageopacity="0"
     inkscape:pagecheckerboard="true"
     inkscape:document-units="px"
     showgrid="false"
     units="px"
     width="150px"
     inkscape:zoom="3.1108586"
     inkscape:cx="5.6254566"
     inkscape:cy="96.757854"
     inkscape:window-width="1718"
     inkscape:window-height="1360"
     inkscape:window-x="1913"
     inkscape:window-y="0"
     inkscape:window-maximized="0"
     inkscape:current-layer="svg116" />
  <defs
     id="defs113" />
  <g
     inkscape:label="Layer 1"
     inkscape:groupmode="layer"
     id="layer1" />
  <path
     sodipodi:type="star"
     style="fill:#565352;fill-opacity:1;fill-rule:evenodd"
     id="path327"
     inkscape:flatsided="false"
     sodipodi:sides="5"
     sodipodi:cx="244.30554"
     sodipodi:cy="138.86841"
     sodipodi:r1="70.863075"
     sodipodi:r2="35.431538"
     sodipodi:arg1="1.5707963"
     sodipodi:arg2="2.1991149"
     inkscape:rounded="0"
     inkscape:randomized="0"
     d="m 244.30554,209.73148 -20.82613,-42.19836 -46.56866,-6.76682 33.6974,-32.84684 -7.95488,-46.380483 41.65227,21.897893 41.65227,-21.897895 -7.95487,46.380485 33.69739,32.84684 -46.56865,6.76683 z"
     transform="matrix(-0.06870276,0,0,-0.07223836,36.628215,20.442325)"
     inkscape:transform-center-y="-0.48882352" />
  <path
     sodipodi:type="star"
     style="fill:#565352;fill-opacity:1;fill-rule:evenodd"
     id="path327-2"
     inkscape:flatsided="false"
     sodipodi:sides="5"
     sodipodi:cx="244.30554"
     sodipodi:cy="138.86841"
     sodipodi:r1="70.863075"
     sodipodi:r2="35.431538"
     sodipodi:arg1="1.5707963"
     sodipodi:arg2="2.1991149"
     inkscape:rounded="0"
     inkscape:randomized="0"
     transform="matrix(-0.06870276,0,0,-0.07223836,30.67509,38.963158)"
     inkscape:transform-center-y="-0.48882352"
     d="m 244.30554,209.73148 -20.82613,-42.19836 -46.56866,-6.76682 33.6974,-32.84684 -7.95488,-46.380483 41.65227,21.897893 41.65227,-21.897895 -7.95487,46.380485 33.69739,32.84684 -46.56865,6.76683 z" />
  <path
     sodipodi:type="star"
     style="fill:#565352;fill-opacity:1;fill-rule:evenodd"
     id="path327-7"
     inkscape:flatsided="false"
     sodipodi:sides="5"
     sodipodi:cx="244.30554"
     sodipodi:cy="138.86841"
     sodipodi:r1="70.863075"
     sodipodi:r2="35.431538"
     sodipodi:arg1="1.5707963"
     sodipodi:arg2="2.1991149"
     inkscape:rounded="0"
     inkscape:randomized="0"
     transform="matrix(-0.06870276,0,0,-0.07223836,42.58134,38.963158)"
     inkscape:transform-center-y="-0.48882352"
     d="m 244.30554,209.73148 -20.82613,-42.19836 -46.56866,-6.76682 33.6974,-32.84684 -7.95488,-46.380483 41.65227,21.897893 41.65227,-21.897895 -7.95487,46.380485 33.69739,32.84684 -46.56865,6.76683 z" />
  <path
     sodipodi:type="star"
     style="fill:#565352;fill-opacity:1;fill-rule:evenodd"
     id="path327-5"
     inkscape:flatsided="false"
     sodipodi:sides="5"
     sodipodi:cx="244.30554"
     sodipodi:cy="138.86841"
     sodipodi:r1="70.863075"
     sodipodi:r2="35.431538"
     sodipodi:arg1="1.5707963"
     sodipodi:arg2="2.1991149"
     inkscape:rounded="0"
     inkscape:randomized="0"
     transform="matrix(-0.06870276,0,0,-0.07223836,46.55009,28.379825)"
     inkscape:transform-center-y="-0.48882352"
     d="m 244.30554,209.73148 -20.82613,-42.19836 -46.56866,-6.76682 33.6974,-32.84684 -7.95488,-46.380483 41.65227,21.897893 41.65227,-21.897895 -7.95487,46.380485 33.69739,32.84684 -46.56865,6.76683 z" />
  <path
     sodipodi:type="star"
     style="fill:#565352;fill-opacity:1;fill-rule:evenodd"
     id="path327-8"
     inkscape:flatsided="false"
     sodipodi:sides="5"
     sodipodi:cx="244.30554"
     sodipodi:cy="138.86841"
     sodipodi:r1="70.863075"
     sodipodi:r2="35.431538"
     sodipodi:arg1="1.5707963"
     sodipodi:arg2="2.1991149"
     inkscape:rounded="0"
     inkscape:randomized="0"
     transform="matrix(-0.06870276,0,0,-0.07223836,26.70634,28.379825)"
     inkscape:transform-center-y="-0.48882352"
     d="m 244.30554,209.73148 -20.82613,-42.19836 -46.56866,-6.76682 33.6974,-32.84684 -7.95488,-46.380483 41.65227,21.897893 41.65227,-21.897895 -7.95487,46.380485 33.69739,32.84684 -46.56865,6.76683 z" />
  <metadata
     id="metadata1465">
    <rdf:RDF>
      <cc:Work
         rdf:about="">
        <dc:title>Five Star Dark</dc:title>
      </cc:Work>
    </rdf:RDF>
  </metadata>
</svg>
