<?xml version="1.0" encoding="UTF-8" standalone="no"?>
<!-- Created with Inkscape (http://www.inkscape.org/) -->

<svg
   width="150"
   height="150"
   viewBox="0 0 39.687499 39.687501"
   version="1.1"
   id="svg6563"
   inkscape:version="1.1.1 (3bf5ae0d25, 2021-09-20)"
   sodipodi:docname="lt-colonel-light.svg"
   xmlns:inkscape="http://www.inkscape.org/namespaces/inkscape"
   xmlns:sodipodi="http://sodipodi.sourceforge.net/DTD/sodipodi-0.dtd"
   xmlns="http://www.w3.org/2000/svg"
   xmlns:svg="http://www.w3.org/2000/svg"
   xmlns:rdf="http://www.w3.org/1999/02/22-rdf-syntax-ns#"
   xmlns:cc="http://creativecommons.org/ns#"
   xmlns:dc="http://purl.org/dc/elements/1.1/">
  <title
     id="title7676">Lt Colonel Light</title>
  <sodipodi:namedview
     id="namedview6565"
     pagecolor="#ffffff"
     bordercolor="#999999"
     borderopacity="1"
     inkscape:pageshadow="0"
     inkscape:pageopacity="0"
     inkscape:pagecheckerboard="true"
     inkscape:document-units="px"
     showgrid="false"
     units="px"
     inkscape:zoom="3.1108586"
     inkscape:cx="94.668399"
     inkscape:cy="128.26041"
     inkscape:window-width="1718"
     inkscape:window-height="1360"
     inkscape:window-x="1913"
     inkscape:window-y="0"
     inkscape:window-maximized="0"
     inkscape:current-layer="layer1" />
  <defs
     id="defs6560" />
  <g
     inkscape:label="Layer 1"
     inkscape:groupmode="layer"
     id="layer1">
    <g
       id="g7672"
       transform="matrix(1.3453112,0,0,1.1880824,-4.4699285,2.1840149)"
       style="fill:#f8f8f8;fill-opacity:1;stroke:#f8f8ff;stroke-opacity:1">
      <path
         sodipodi:type="star"
         style="fill:#f8f8f8;fill-opacity:1;stroke:#f8f8ff;stroke-opacity:1"
         id="path7060"
         inkscape:flatsided="false"
         sodipodi:sides="3"
         sodipodi:cx="38.253105"
         sodipodi:cy="10.447277"
         sodipodi:r1="18.187773"
         sodipodi:r2="12.731441"
         sodipodi:arg1="0.52359878"
         sodipodi:arg2="1.5707963"
         inkscape:rounded="0.16"
         inkscape:randomized="0"
         d="m 54.004178,19.541164 c -1.293251,2.239977 -13.164569,3.637554 -15.751072,3.637554 -2.586504,0 -14.457822,-1.397577 -15.751074,-3.637555 -1.293252,-2.239977 3.43207,-13.2196284 4.725322,-15.4596059 1.293252,-2.2399777 8.439248,-11.8220527 11.025751,-11.8220528 2.586504,-10e-8 9.732499,9.5820746 11.025751,11.8220522 1.293252,2.2399777 6.018574,13.2196295 4.725322,15.4596075 z"
         transform="matrix(0.26458333,0,0,0.26458333,7.6546392,8.1224227)"
         inkscape:transform-center-y="-1.2030454" />
      <path
         sodipodi:type="star"
         style="fill:#f8f8f8;fill-opacity:1;stroke:#f8f8ff;stroke-opacity:1"
         id="path7060-4"
         inkscape:flatsided="false"
         sodipodi:sides="3"
         sodipodi:cx="38.253105"
         sodipodi:cy="10.447277"
         sodipodi:r1="18.187773"
         sodipodi:r2="12.731441"
         sodipodi:arg1="0.52359878"
         sodipodi:arg2="1.5707963"
         inkscape:rounded="0.16"
         inkscape:randomized="0"
         transform="matrix(0.18111027,-0.19288186,0.19288186,0.18111027,6.3130295,17.161414)"
         inkscape:transform-center-y="0.242454"
         d="m 54.004178,19.541164 c -1.293251,2.239977 -13.164569,3.637554 -15.751072,3.637554 -2.586504,0 -14.457822,-1.397577 -15.751074,-3.637555 -1.293252,-2.239977 3.43207,-13.2196284 4.725322,-15.4596059 1.293252,-2.2399777 8.439248,-11.8220527 11.025751,-11.8220528 2.586504,-10e-8 9.732499,9.5820746 11.025751,11.8220522 1.293252,2.2399777 6.018574,13.2196295 4.725322,15.4596075 z"
         inkscape:transform-center-x="-0.11412315" />
      <path
         sodipodi:type="star"
         style="fill:#f8f8f8;fill-opacity:1;stroke:#f8f8ff;stroke-opacity:1"
         id="path7060-4-8"
         inkscape:flatsided="false"
         sodipodi:sides="3"
         sodipodi:cx="38.253105"
         sodipodi:cy="10.447277"
         sodipodi:r1="18.187773"
         sodipodi:r2="12.731441"
         sodipodi:arg1="0.52359878"
         sodipodi:arg2="1.5707963"
         inkscape:rounded="0.16"
         inkscape:randomized="0"
         transform="matrix(-0.01386176,-0.26421997,0.26421997,-0.01386176,12.908055,25.300464)"
         inkscape:transform-center-y="-0.08495622"
         inkscape:transform-center-x="1.1996114"
         d="m 54.004178,19.541164 c -1.293251,2.239977 -13.164569,3.637554 -15.751072,3.637554 -2.586504,0 -14.457822,-1.397577 -15.751074,-3.637555 -1.293252,-2.239977 3.43207,-13.2196284 4.725322,-15.4596059 1.293252,-2.2399777 8.439248,-11.8220527 11.025751,-11.8220528 2.586504,-10e-8 9.732499,9.5820746 11.025751,11.8220522 1.293252,2.2399777 6.018574,13.2196295 4.725322,15.4596075 z" />
      <path
         sodipodi:type="star"
         style="fill:#f8f8f8;fill-opacity:1;stroke:#f8f8ff;stroke-opacity:1"
         id="path7060-4-8-5"
         inkscape:flatsided="false"
         sodipodi:sides="3"
         sodipodi:cx="38.253105"
         sodipodi:cy="10.447277"
         sodipodi:r1="18.187773"
         sodipodi:r2="12.731441"
         sodipodi:arg1="0.52359878"
         sodipodi:arg2="1.5707963"
         inkscape:rounded="0.16"
         inkscape:randomized="0"
         transform="matrix(-0.19466055,-0.17919713,0.17919713,-0.19466055,22.012333,25.870265)"
         inkscape:transform-center-y="-0.0927872"
         inkscape:transform-center-x="-0.26101665"
         d="m 54.004178,19.541164 c -1.293251,2.239977 -13.164569,3.637554 -15.751072,3.637554 -2.586504,0 -14.457822,-1.397577 -15.751074,-3.637555 -1.293252,-2.239977 3.43207,-13.2196284 4.725322,-15.4596059 1.293252,-2.2399777 8.439248,-11.8220527 11.025751,-11.8220528 2.586504,-10e-8 9.732499,9.5820746 11.025751,11.8220522 1.293252,2.2399777 6.018574,13.2196295 4.725322,15.4596075 z" />
      <path
         sodipodi:type="star"
         style="fill:#f8f8f8;fill-opacity:1;stroke:#f8f8ff;stroke-opacity:1"
         id="path7060-4-8-5-4"
         inkscape:flatsided="false"
         sodipodi:sides="3"
         sodipodi:cx="38.253105"
         sodipodi:cy="10.447277"
         sodipodi:r1="18.187773"
         sodipodi:r2="12.731441"
         sodipodi:arg1="0.52359878"
         sodipodi:arg2="1.5707963"
         inkscape:rounded="0.16"
         inkscape:randomized="0"
         transform="matrix(-0.03984138,-0.26156645,0.26156645,-0.03984138,18.685853,27.303876)"
         inkscape:transform-center-y="-0.24059509"
         inkscape:transform-center-x="1.1488495"
         d="m 54.004178,19.541164 c -1.293251,2.239977 -13.164569,3.637554 -15.751072,3.637554 -2.586504,0 -14.457822,-1.397577 -15.751074,-3.637555 -1.293252,-2.239977 3.43207,-13.2196284 4.725322,-15.4596059 1.293252,-2.2399777 8.439248,-11.8220527 11.025751,-11.8220528 2.586504,-10e-8 9.732499,9.5820746 11.025751,11.8220522 1.293252,2.2399777 6.018574,13.2196295 4.725322,15.4596075 z" />
      <path
         sodipodi:type="star"
         style="fill:#f8f8f8;fill-opacity:1;stroke:#f8f8ff;stroke-opacity:1"
         id="path7060-4-8-5-4-1"
         inkscape:flatsided="false"
         sodipodi:sides="3"
         sodipodi:cx="38.253105"
         sodipodi:cy="10.447277"
         sodipodi:r1="18.187773"
         sodipodi:r2="12.731441"
         sodipodi:arg1="0.52359878"
         sodipodi:arg2="1.5707963"
         inkscape:rounded="0.16"
         inkscape:randomized="0"
         transform="matrix(-0.22322975,-0.14203106,0.14203106,-0.22322975,28.061045,22.659366)"
         inkscape:transform-center-y="0.31545848"
         inkscape:transform-center-x="-0.46173962"
         d="m 54.004178,19.541164 c -1.293251,2.239977 -13.164569,3.637554 -15.751072,3.637554 -2.586504,0 -14.457822,-1.397577 -15.751074,-3.637555 -1.293252,-2.239977 3.43207,-13.2196284 4.725322,-15.4596059 1.293252,-2.2399777 8.439248,-11.8220527 11.025751,-11.8220528 2.586504,-10e-8 9.732499,9.5820746 11.025751,11.8220522 1.293252,2.2399777 6.018574,13.2196295 4.725322,15.4596075 z" />
      <path
         sodipodi:type="star"
         style="fill:#f8f8f8;fill-opacity:1;stroke:#f8f8ff;stroke-opacity:1"
         id="path7060-4-8-5-4-1-4"
         inkscape:flatsided="false"
         sodipodi:sides="3"
         sodipodi:cx="38.253105"
         sodipodi:cy="10.447277"
         sodipodi:r1="18.187773"
         sodipodi:r2="12.731441"
         sodipodi:arg1="0.52359878"
         sodipodi:arg2="1.5707963"
         inkscape:rounded="0.16"
         inkscape:randomized="0"
         transform="matrix(-0.25426203,0.07317896,-0.07317896,-0.25426203,31.438498,11.625771)"
         inkscape:transform-center-y="0.95079421"
         inkscape:transform-center-x="0.4180453"
         d="m 54.004178,19.541164 c -1.293251,2.239977 -13.164569,3.637554 -15.751072,3.637554 -2.586504,0 -14.457822,-1.397577 -15.751074,-3.637555 -1.293252,-2.239977 3.43207,-13.2196284 4.725322,-15.4596059 1.293252,-2.2399777 8.439248,-11.8220527 11.025751,-11.8220528 2.586504,-10e-8 9.732499,9.5820746 11.025751,11.8220522 1.293252,2.2399777 6.018574,13.2196295 4.725322,15.4596075 z" />
      <path
         sodipodi:type="star"
         style="fill:#f8f8f8;fill-opacity:1;stroke:#f8f8ff;stroke-opacity:1"
         id="path7582"
         inkscape:flatsided="false"
         sodipodi:sides="3"
         sodipodi:cx="65.898209"
         sodipodi:cy="88.400032"
         sodipodi:r1="6.9336662"
         sodipodi:r2="4.8535662"
         sodipodi:arg1="0.80179014"
         sodipodi:arg2="1.8489877"
         inkscape:rounded="0.16"
         inkscape:randomized="0"
         d="m 70.720029,93.382579 c -0.708574,0.685717 -5.206558,-0.0448 -6.154692,-0.315582 -0.948135,-0.270785 -5.15349,-2.025919 -5.393051,-2.98242 -0.239561,-0.956501 2.642075,-4.486612 3.350649,-5.172328 0.708573,-0.685716 4.331242,-3.450094 5.279376,-3.179309 0.948135,0.270784 2.564482,4.53141 2.804043,5.487911 0.239561,0.956501 0.822248,5.476012 0.113675,6.161728 z"
         transform="matrix(0.26767979,-0.1019162,-0.13820557,0.38494479,12.150356,-5.658776)"
         inkscape:transform-center-x="0.24763181"
         inkscape:transform-center-y="-0.413976" />
    </g>
  </g>
  <metadata
     id="metadata7674">
    <rdf:RDF>
      <cc:Work
         rdf:about="">
        <dc:title>Lt Colonel Light</dc:title>
      </cc:Work>
    </rdf:RDF>
  </metadata>
</svg>
